<svg width="20" height="21" viewBox="0 0 20 21" fill="none" xmlns="http://www.w3.org/2000/svg">
<path d="M2 21.0016C1.45 21.0016 0.979167 20.8057 0.5875 20.4141C0.195833 20.0224 0 19.5516 0 19.0016V5.00156C0 4.45156 0.195833 3.98073 0.5875 3.58906C0.979167 3.1974 1.45 3.00156 2 3.00156H10.925L8.925 5.00156H2V19.0016H16V12.0516L18 10.0516V19.0016C18 19.5516 17.8042 20.0224 17.4125 20.4141C17.0208 20.8057 16.55 21.0016 16 21.0016H2ZM6 15.0016V10.7516L15.175 1.57656C15.375 1.37656 15.6 1.22656 15.85 1.12656C16.1 1.02656 16.35 0.976562 16.6 0.976562C16.8667 0.976562 17.1208 1.02656 17.3625 1.12656C17.6042 1.22656 17.825 1.37656 18.025 1.57656L19.425 3.00156C19.6083 3.20156 19.75 3.4224 19.85 3.66406C19.95 3.90573 20 4.15156 20 4.40156C20 4.65156 19.9542 4.8974 19.8625 5.13906C19.7708 5.38073 19.625 5.60156 19.425 5.80156L10.25 15.0016H6ZM8 13.0016H9.4L15.2 7.20156L14.5 6.50156L13.775 5.80156L8 11.5766V13.0016Z" fill="#E5E5E5"/>
</svg>
